<?xml version="1.0" encoding="utf-8"?>
<!-- Generator: Adobe Illustrator 16.0.3, SVG Export Plug-In . SVG Version: 6.00 Build 0)  -->
<!DOCTYPE svg PUBLIC "-//W3C//DTD SVG 1.1//EN" "http://www.w3.org/Graphics/SVG/1.1/DTD/svg11.dtd">
<svg version="1.1" id="Capa_1" xmlns="http://www.w3.org/2000/svg" xmlns:xlink="http://www.w3.org/1999/xlink" x="0px" y="0px"
	 width="512px" height="512px" viewBox="0 0 512 512" enable-background="new 0 0 512 512" xml:space="preserve">
<path fill="#080980" d="M477.064,194.19c-10.231-36.809-29.636-70.6-57.04-98.604l9.972-34.732L338.004,7.741L312.991,33.66
	c-18.399-4.683-37.509-7.104-56.991-7.104L236,256l20,229.444c19.482,0,38.592-2.421,56.991-7.104l25.013,25.918l91.992-53.111
	l-9.972-34.732c27.404-28.004,46.809-61.795,57.04-98.604l34.935-8.699V202.888L477.064,194.19z"/>
<path fill="#263D97" d="M199.008,33.66L173.996,7.741L82.004,60.854l9.972,34.732c-27.404,28.004-46.809,61.795-57.04,98.604
	L0,202.888v106.223l34.936,8.699c10.231,36.809,29.636,70.6,57.04,98.604l-9.972,34.732l91.993,53.111l25.012-25.918
	c18.4,4.683,37.509,7.104,56.992,7.104V26.556C236.517,26.556,217.408,28.977,199.008,33.66L199.008,33.66z"/>
<path fill="#51BB28" stroke="#000000" stroke-width="0.25" stroke-miterlimit="10" d="M256,75.291L236,256l20,180.709
	c99.644,0,180.709-81.066,180.709-180.709C436.709,156.357,355.644,75.291,256,75.291L256,75.291z"/>
<path fill="#74C953" d="M75.291,256c0,99.645,81.065,180.709,180.709,180.709V75.291C156.356,75.291,75.291,156.356,75.291,256z"/>
<path fill="#DCF1D4" d="M256,105.291l-3.5,153.513l3.5,147.905c83.102,0,150.709-67.607,150.709-150.709
	C406.709,172.899,339.102,105.291,256,105.291L256,105.291z"/>
<path fill="#FFF5F5" d="M105.291,256c0,83.102,67.607,150.709,150.709,150.709V105.291C172.898,105.291,105.291,172.898,105.291,256
	z"/>
<g>
	<path fill="#263D97" d="M142.646,254.471c0.145-4.617,0.846-9.298,1.045-13.995C143.062,245.06,142.708,249.73,142.646,254.471z"/>
	<path fill="#080980" d="M256.004,142.708c-55.954,0-102.435,40.504-111.695,93.768c0.527-0.994,1.509-1.664,3.313-1.654
		c1.72,0.01,3.19-1.039,4.518-2.207c0.919-0.807,2.017-1.504,3.363-0.746c1.247,0.705,1.926,1.689,2.039,3.184
		c0.256,3.381,0.664,3.781,3.732,3.08c1.471-0.338,1.789,0.15,2.137,1.344c0.502,1.725,0.176,3.59,1.088,5.244
		c0.934,1.697,2.178,2.26,3.637,0.869c1.974-1.883,4.245-2.336,6.826-2.078c2.204,0.221,4.32-0.242,6.442-0.838
		c2.966-0.832,5.302,0.16,6.215,2.457c0.971,2.439,0.064,4.53-2.637,6.075c-4.805,2.748-4.857,2.961-2.936,8.278
		c1.064,2.945,2.242,5.926-0.149,8.848c-0.196,0.238-0.296,0.848-0.142,1.027c0.503,0.574,1.181,0.406,1.838,0.17
		c2.583-0.934,5.191-1.803,7.751-2.795c0.836-0.324,1.68-0.543,2.5-0.369c1.557,0.326,3.529,0.467,4.138,2.068
		c0.604,1.594-1.226,2.414-2.224,3.309c-3.951,3.545-8.143,6.811-11.295,11.189c-1.365,1.896-3.878,1.238-5.867,1.539
		c-3.851,0.582-4.373,1.232-2.823,4.869c0.584,1.371,0.981,2.871,0.431,4.137c-1.526,3.51-2.102,7.207-2.821,10.906
		c-0.32,1.648-1.201,2.465-3.46,2.283c-2.431-0.197-5.191,0.107-7.417,1.725c-3.415,2.479-6.058,1.818-7.865-1.869
		c-5.484-11.189-9.07-22.971-10.809-35.273c-0.379-2.684-1.112-5.402-0.605-8.516c-0.354-1.732-0.523-3.48-0.582-5.236
		c0.802,61.879,51.242,111.797,113.359,111.797c62.615,0,113.377-50.723,113.377-113.292S318.619,142.708,256.004,142.708z
		 M199.701,186.073c1.068-7.365,1.682-14.795,2.362-22.211c0.154-1.68,0.447-2.334,2.391-1.922c2.425,0.516,4.542-0.959,6.642-1.92
		c1.371-0.629,2.173-0.738,2.412,0.916c0.162,1.117,0.607,1.775,1.82,1.674c0.867-0.074,1.215,0.529,1.369,1.17
		c0.576,2.367,1.598,2.621,3.893,1.611c1.98-0.871,4.404-0.822,6.646-0.982c0.783-0.057,1.828,0.373,1.996,1.311
		c0.146,0.822-0.736,1.258-1.333,1.707c-3.157,2.373-3.104,3.9,0.118,6.123c1.795,1.238,3.8,1.955,6.438,2.641
		c-4.195,3.381-8.025,6.369-12.662,8.098c-2.563,0.955-5.236,1.613-7.84,2.465c-2.875,0.941-5.186,2.551-6.878,5.182
		c-1.897,2.951-3.27,2.582-5.78,0.266C199.181,190.251,199.337,188.583,199.701,186.073z M326,290.343
		c-2.041,1.652-4.336,2.244-6.904,1.117c-3.131-1.373-5.836-3.539-9.07-4.736c-1.135-0.42-2.297-0.779-3.256-0.129
		c-1.063,0.721,0.01,1.744,0.186,2.58c0.352,1.676,0.545,3.336,0.629,5.045c0.176,3.482-1.342,5.662-4.52,7.09
		c-4.439,1.996-4.342,2.09-2.268,6.719c1.947,4.34,1.936,8.775,0.375,13.24c-0.436,1.246-0.793,2.518-1.186,3.779
		c-0.576,5.264-0.078,10.545-0.258,15.814c-0.072,2.158,0.256,4.332-0.219,6.477c-0.508,1.961-1.441,0.297-1.707,0.023
		c-2.428-2.488-4.656-3.629-7.1,0.061c-0.713,1.076-1.74,0.092-2.422-0.516c-1.947-1.734-2.592-4.129-3.123-6.539
		c-0.506-2.295-0.855-4.627-1.738-6.828c-0.949-2.363-2.551-3.574-5.25-3.484c-3.145,0.105-6.238,0.492-9.316,1.064
		c-4.887,0.91-8.043-0.555-10.387-4.865c-0.045-0.084-0.076-0.191-0.146-0.242c-3.76-2.707-5.755-6.941-8.914-10.15
		c-0.919-0.934-1.621-1.898-1.92-3.061c-0.521-2.025-1.824-3.371-3.576-4.191c-3.859-1.803-7.786-3.465-11.713-5.119
		c-1.94-0.816-3.881-0.84-5.699,0.445c-2.066,1.457-4.119,1.176-6.082-0.191c-1.477-1.029-2.894-2.143-4.322-3.238
		c-3.245-2.492-6.613-4.75-10.493-6.201c-3.84-1.438-6.149-4.211-7.099-8.225c-0.484-2.043,0.079-3.555,1.735-4.631
		c1.562-1.012,2.848-1.969,3.07-4.098c0.183-1.752,1.997-2.143,3.469-2.457c2.636-0.561,3.912-2.197,5.3-4.506
		c3.494-5.809,2.699-11.805,1.902-17.907c-1.072-8.222-2.053-16.46-3.365-24.646c-0.755-4.715-0.004-8.982,2.298-13.074
		c1.746-3.105,4.155-5.324,7.762-6.156c3.53-0.814,6.155-2.826,7.632-6.211c0.762-1.748,1.997-2.998,3.98-3.299
		c1.883-0.283,2.65-1.775,3.359-3.197c1.141-2.281,2.168-4.625,3.133-6.986c1.42-3.471,3.843-5.754,7.481-6.813
		c3.448-1.004,6.835-2.219,10.298-3.154c4.471-1.207,7.771-4.225,11.34-6.861c2.217-1.639,4.609-2.965,7.279-3.791
		c6.549-2.027,13.85,2.248,15.211,8.959c0.873,4.303-0.338,6.508-4.553,7.6c-3.695,0.953-7.297,1.977-10.328,4.443
		c-3.604,2.934-6.252,6.551-8.232,10.723c-0.822,1.729-0.625,3.553,0.791,4.342c4.484,2.5,5.848,6.496,6.047,11.129
		c0.164,3.818,2.582,5.396,5.797,6.402c4.188,1.309,8.629,1.084,12.852,2.209c4.008,1.066,7.295,3.088,9.668,6.518
		c2.021,2.924,4.664,4.516,8.402,4.355c2.252-0.096,4.52-0.01,6.805,0.482c8.027,1.732,11.426,8.023,8.189,15.548
		c-0.299,0.693-0.627,1.385-1.033,2.018c-1.891,2.934-2.195,5.806-0.418,9.019c1.176,2.123,1.789,4.563,0.895,7.096
		c-0.938,2.656-0.264,5.158,0.82,7.645c1.016,2.33,1.914,4.707,2.273,7.264C328.723,286.608,327.975,288.741,326,290.343z"/>
	<path fill="#74C953" d="M143.833,271.247c1.738,12.303,5.325,24.084,10.809,35.273c1.807,3.688,4.45,4.348,7.865,1.869
		c2.226-1.617,4.986-1.922,7.417-1.725c2.259,0.182,3.14-0.635,3.46-2.283c0.719-3.699,1.294-7.396,2.821-10.906
		c0.551-1.266,0.154-2.766-0.431-4.137c-1.55-3.637-1.027-4.287,2.823-4.869c1.989-0.301,4.502,0.357,5.867-1.539
		c3.152-4.379,7.344-7.645,11.295-11.189c0.998-0.895,2.828-1.715,2.224-3.309c-0.608-1.602-2.581-1.742-4.138-2.068
		c-0.82-0.174-1.664,0.045-2.5,0.369c-2.561,0.992-5.168,1.861-7.751,2.795c-0.658,0.236-1.335,0.404-1.838-0.17
		c-0.155-0.18-0.055-0.789,0.142-1.027c2.392-2.922,1.214-5.902,0.149-8.848c-1.922-5.317-1.87-5.53,2.936-8.278
		c2.701-1.545,3.608-3.636,2.637-6.075c-0.913-2.297-3.249-3.289-6.215-2.457c-2.122,0.596-4.238,1.059-6.442,0.838
		c-2.581-0.258-4.852,0.195-6.826,2.078c-1.459,1.391-2.704,0.828-3.637-0.869c-0.912-1.654-0.585-3.52-1.088-5.244
		c-0.348-1.193-0.666-1.682-2.137-1.344c-3.068,0.701-3.476,0.301-3.732-3.08c-0.113-1.494-0.792-2.479-2.039-3.184
		c-1.346-0.758-2.443-0.061-3.363,0.746c-1.327,1.168-2.798,2.217-4.518,2.207c-1.804-0.01-2.786,0.66-3.313,1.654
		c-0.422,0.797-0.553,1.803-0.577,2.834c-0.009,0.389-0.025,0.777-0.041,1.166c-0.199,4.697-0.9,9.378-1.045,13.995
		c-0.032,1.012-0.034,2.02,0,3.024c0.059,1.756,0.229,3.504,0.582,5.236C142.721,265.845,143.453,268.563,143.833,271.247z"/>
	<path fill="#37A626" d="M326.088,276.78c-1.084-2.486-1.758-4.988-0.82-7.645c0.895-2.533,0.281-4.973-0.895-7.096
		c-1.777-3.213-1.473-6.085,0.418-9.019c0.406-0.633,0.734-1.324,1.033-2.018c3.236-7.524-0.162-13.815-8.189-15.548
		c-2.285-0.492-4.553-0.578-6.805-0.482c-3.738,0.16-6.381-1.432-8.402-4.355c-2.373-3.43-5.66-5.451-9.668-6.518
		c-4.223-1.125-8.664-0.9-12.852-2.209c-3.215-1.006-5.633-2.584-5.797-6.402c-0.199-4.633-1.563-8.629-6.047-11.129
		c-1.416-0.789-1.613-2.613-0.791-4.342c1.98-4.172,4.629-7.789,8.232-10.723c3.031-2.467,6.633-3.49,10.328-4.443
		c4.215-1.092,5.426-3.297,4.553-7.6c-1.361-6.711-8.662-10.986-15.211-8.959c-2.67,0.826-5.063,2.152-7.279,3.791
		c-3.568,2.637-6.869,5.654-11.34,6.861c-3.463,0.936-6.85,2.15-10.298,3.154c-3.639,1.059-6.062,3.342-7.481,6.813
		c-0.965,2.361-1.992,4.705-3.133,6.986c-0.709,1.422-1.477,2.914-3.359,3.197c-1.983,0.301-3.219,1.551-3.98,3.299
		c-1.477,3.385-4.102,5.396-7.632,6.211c-3.606,0.832-6.016,3.051-7.762,6.156c-2.302,4.092-3.053,8.359-2.298,13.074
		c1.313,8.186,2.293,16.424,3.365,24.646c0.797,6.103,1.592,12.099-1.902,17.907c-1.389,2.309-2.664,3.945-5.3,4.506
		c-1.472,0.314-3.286,0.705-3.469,2.457c-0.222,2.129-1.508,3.086-3.07,4.098c-1.657,1.076-2.219,2.588-1.735,4.631
		c0.949,4.014,3.258,6.787,7.099,8.225c3.88,1.451,7.248,3.709,10.493,6.201c1.429,1.096,2.846,2.209,4.322,3.238
		c1.963,1.367,4.016,1.648,6.082,0.191c1.818-1.285,3.759-1.262,5.699-0.445c3.927,1.654,7.854,3.316,11.713,5.119
		c1.752,0.82,3.055,2.166,3.576,4.191c0.299,1.162,1.001,2.127,1.92,3.061c3.159,3.209,5.154,7.443,8.914,10.15
		c0.07,0.051,0.102,0.158,0.146,0.242c2.344,4.311,5.5,5.775,10.387,4.865c3.078-0.572,6.172-0.959,9.316-1.064
		c2.699-0.09,4.301,1.121,5.25,3.484c0.883,2.201,1.232,4.533,1.738,6.828c0.531,2.41,1.176,4.805,3.123,6.539
		c0.682,0.607,1.709,1.592,2.422,0.516c2.443-3.689,4.672-2.549,7.1-0.061c0.266,0.273,1.199,1.938,1.707-0.023
		c0.475-2.145,0.146-4.318,0.219-6.477c0.18-5.27-0.318-10.551,0.258-15.814c0.393-1.262,0.75-2.533,1.186-3.779
		c1.561-4.465,1.572-8.9-0.375-13.24c-2.074-4.629-2.172-4.723,2.268-6.719c3.178-1.428,4.695-3.607,4.52-7.09
		c-0.084-1.709-0.277-3.369-0.629-5.045c-0.176-0.836-1.248-1.859-0.186-2.58c0.959-0.65,2.121-0.291,3.256,0.129
		c3.234,1.197,5.939,3.363,9.07,4.736c2.568,1.127,4.863,0.535,6.904-1.117c1.975-1.602,2.723-3.734,2.361-6.299
		C328.002,281.487,327.104,279.11,326.088,276.78z"/>
	<path fill="#74C953" d="M207.075,191.935c1.692-2.631,4.003-4.24,6.878-5.182c2.604-0.852,5.277-1.51,7.84-2.465
		c4.637-1.729,8.467-4.717,12.662-8.098c-2.638-0.686-4.643-1.402-6.438-2.641c-3.223-2.223-3.275-3.75-0.118-6.123
		c0.597-0.449,1.479-0.885,1.333-1.707c-0.168-0.938-1.213-1.367-1.996-1.311c-2.242,0.16-4.666,0.111-6.646,0.982
		c-2.295,1.01-3.316,0.756-3.893-1.611c-0.154-0.641-0.502-1.244-1.369-1.17c-1.213,0.102-1.658-0.557-1.82-1.674
		c-0.239-1.654-1.041-1.545-2.412-0.916c-2.1,0.961-4.217,2.436-6.642,1.92c-1.943-0.412-2.236,0.242-2.391,1.922
		c-0.68,7.416-1.294,14.846-2.362,22.211c-0.364,2.51-0.52,4.178,1.595,6.127C203.805,194.517,205.178,194.886,207.075,191.935z"/>
</g>
<g>
	<path fill="none" d="M142.645,257.494c-0.034-1.005-0.031-2.013,0-3.024c0.063-4.74,0.416-9.412,1.045-13.995
		c0.016-0.389,0.032-0.777,0.041-1.166c0.024-1.032,0.155-2.037,0.577-2.834c9.26-53.263,55.74-93.766,111.692-93.768v-37.566
		H138.013v270.667H256v-6.518C193.885,369.289,143.447,319.372,142.645,257.494z"/>
	<path fill="#263D97" d="M142.645,254.47c0.145-4.617,0.846-9.297,1.045-13.995C143.061,245.058,142.708,249.729,142.645,254.47z"/>
	<path fill="#263D97" d="M144.308,236.475c0.527-0.994,1.509-1.665,3.313-1.654c1.72,0.01,3.19-1.04,4.518-2.207
		c0.919-0.808,2.017-1.505,3.363-0.746c1.247,0.704,1.926,1.688,2.039,3.184c0.256,3.381,0.664,3.781,3.732,3.079
		c1.471-0.337,1.789,0.151,2.137,1.344c0.502,1.725,0.176,3.591,1.088,5.245c0.934,1.696,2.178,2.259,3.637,0.868
		c1.974-1.882,4.245-2.335,6.826-2.077c2.204,0.22,4.32-0.242,6.442-0.838c2.966-0.833,5.302,0.16,6.215,2.456
		c0.971,2.44,0.064,4.531-2.637,6.076c-4.805,2.748-4.857,2.961-2.936,8.278c1.064,2.945,2.242,5.926-0.149,8.848
		c-0.196,0.238-0.296,0.848-0.142,1.027c0.503,0.574,1.181,0.406,1.838,0.17c2.583-0.934,5.191-1.803,7.751-2.795
		c0.836-0.324,1.68-0.543,2.5-0.369c1.557,0.326,3.529,0.467,4.138,2.068c0.604,1.594-1.226,2.414-2.224,3.309
		c-3.951,3.545-8.143,6.811-11.295,11.189c-1.365,1.896-3.878,1.238-5.867,1.539c-3.851,0.582-4.373,1.232-2.823,4.869
		c0.584,1.371,0.981,2.871,0.431,4.137c-1.526,3.51-2.102,7.207-2.821,10.906c-0.32,1.648-1.201,2.465-3.46,2.283
		c-2.431-0.197-5.191,0.107-7.417,1.725c-3.415,2.479-6.058,1.818-7.865-1.869c-5.484-11.189-9.07-22.971-10.809-35.273
		c-0.379-2.684-1.112-5.402-0.605-8.516c-0.354-1.732-0.523-3.48-0.582-5.236c0.802,61.878,51.24,111.795,113.355,111.797v-45.343
		c-2.4-2.525-4.154-5.608-6.594-8.087c-0.919-0.934-1.621-1.898-1.92-3.061c-0.521-2.025-1.824-3.371-3.576-4.191
		c-3.859-1.803-7.786-3.465-11.713-5.119c-1.94-0.816-3.881-0.84-5.699,0.445c-2.066,1.457-4.119,1.176-6.082-0.191
		c-1.477-1.029-2.894-2.143-4.322-3.238c-3.245-2.492-6.613-4.75-10.493-6.201c-3.84-1.438-6.149-4.211-7.099-8.225
		c-0.484-2.043,0.079-3.555,1.735-4.631c1.562-1.012,2.848-1.969,3.07-4.098c0.183-1.752,1.997-2.143,3.469-2.457
		c2.636-0.561,3.912-2.197,5.3-4.506c3.494-5.809,2.699-11.805,1.902-17.907c-1.072-8.222-2.053-16.46-3.365-24.646
		c-0.755-4.714-0.004-8.981,2.298-13.073c1.746-3.105,4.155-5.324,7.762-6.156c3.53-0.814,6.155-2.827,7.632-6.211
		c0.762-1.749,1.997-2.999,3.98-3.299c1.883-0.283,2.65-1.775,3.359-3.197c1.141-2.282,2.168-4.626,3.133-6.987
		c1.42-3.47,3.843-5.753,7.481-6.812c3.263-0.95,6.472-2.082,9.742-2.994v-36.399C200.048,142.709,153.569,183.212,144.308,236.475z
		 M199.7,186.072c1.068-7.364,1.682-14.795,2.362-22.211c0.154-1.68,0.447-2.334,2.391-1.922c2.425,0.516,4.542-0.959,6.642-1.92
		c1.371-0.629,2.173-0.737,2.412,0.916c0.162,1.118,0.607,1.776,1.82,1.674c0.867-0.073,1.215,0.53,1.369,1.17
		c0.576,2.367,1.598,2.621,3.893,1.612c1.98-0.871,4.404-0.823,6.646-0.983c0.783-0.057,1.828,0.373,1.996,1.312
		c0.146,0.821-0.736,1.257-1.333,1.706c-3.157,2.374-3.104,3.901,0.118,6.124c1.795,1.238,3.8,1.954,6.438,2.641
		c-4.195,3.38-8.025,6.369-12.662,8.097c-2.563,0.955-5.236,1.614-7.84,2.466c-2.875,0.941-5.186,2.551-6.878,5.182
		c-1.897,2.951-3.27,2.582-5.78,0.266C199.181,190.25,199.336,188.583,199.7,186.072z"/>
	<path fill="#74C953" d="M143.832,271.246c1.738,12.303,5.325,24.084,10.809,35.273c1.807,3.688,4.45,4.348,7.865,1.869
		c2.226-1.617,4.986-1.922,7.417-1.725c2.259,0.182,3.14-0.635,3.46-2.283c0.719-3.699,1.294-7.396,2.821-10.906
		c0.551-1.266,0.154-2.766-0.431-4.137c-1.55-3.637-1.027-4.287,2.823-4.869c1.989-0.301,4.502,0.357,5.867-1.539
		c3.152-4.379,7.344-7.645,11.295-11.189c0.998-0.895,2.828-1.715,2.224-3.309c-0.608-1.602-2.581-1.742-4.138-2.068
		c-0.82-0.174-1.664,0.045-2.5,0.369c-2.561,0.992-5.168,1.861-7.751,2.795c-0.658,0.236-1.335,0.404-1.838-0.17
		c-0.155-0.18-0.055-0.789,0.142-1.027c2.392-2.922,1.214-5.902,0.149-8.848c-1.922-5.317-1.87-5.53,2.936-8.278
		c2.701-1.545,3.608-3.635,2.637-6.076c-0.913-2.296-3.249-3.289-6.215-2.456c-2.122,0.596-4.238,1.058-6.442,0.838
		c-2.581-0.258-4.852,0.195-6.826,2.077c-1.459,1.391-2.704,0.828-3.637-0.868c-0.912-1.654-0.585-3.521-1.088-5.245
		c-0.348-1.192-0.666-1.681-2.137-1.344c-3.068,0.702-3.476,0.302-3.732-3.079c-0.113-1.495-0.792-2.479-2.039-3.184
		c-1.346-0.759-2.443-0.062-3.363,0.746c-1.327,1.167-2.798,2.217-4.518,2.207c-1.804-0.011-2.786,0.66-3.313,1.654
		c-0.422,0.797-0.553,1.802-0.577,2.834c-0.009,0.389-0.025,0.777-0.041,1.166c-0.199,4.697-0.9,9.377-1.045,13.995
		c-0.032,1.012-0.034,2.02,0,3.024c0.059,1.756,0.229,3.504,0.582,5.236C142.72,265.844,143.453,268.563,143.832,271.246z"/>
	<path fill="#74C953" d="M238.777,188.912c-0.965,2.361-1.992,4.705-3.133,6.987c-0.709,1.422-1.477,2.914-3.359,3.197
		c-1.983,0.3-3.219,1.55-3.98,3.299c-1.477,3.384-4.102,5.396-7.632,6.211c-3.606,0.832-6.016,3.051-7.762,6.156
		c-2.302,4.092-3.053,8.359-2.298,13.073c1.313,8.186,2.293,16.424,3.365,24.646c0.797,6.103,1.592,12.099-1.902,17.907
		c-1.389,2.309-2.664,3.945-5.3,4.506c-1.472,0.314-3.286,0.705-3.469,2.457c-0.222,2.129-1.508,3.086-3.07,4.098
		c-1.657,1.076-2.219,2.588-1.735,4.631c0.949,4.014,3.258,6.787,7.099,8.225c3.88,1.451,7.248,3.709,10.493,6.201
		c1.429,1.096,2.846,2.209,4.322,3.238c1.963,1.367,4.016,1.648,6.082,0.191c1.818-1.285,3.759-1.262,5.699-0.445
		c3.927,1.654,7.854,3.316,11.713,5.119c1.752,0.82,3.055,2.166,3.576,4.191c0.299,1.162,1.001,2.127,1.92,3.061
		c2.44,2.479,4.194,5.562,6.594,8.087V179.106c-3.27,0.912-6.479,2.044-9.742,2.994C242.62,183.159,240.197,185.442,238.777,188.912
		z"/>
	<path fill="#74C953" d="M207.075,191.934c1.692-2.631,4.003-4.24,6.878-5.182c2.604-0.852,5.277-1.511,7.84-2.466
		c4.637-1.728,8.467-4.717,12.662-8.097c-2.638-0.687-4.643-1.402-6.438-2.641c-3.223-2.223-3.275-3.75-0.118-6.124
		c0.597-0.449,1.479-0.885,1.333-1.706c-0.168-0.938-1.213-1.368-1.996-1.312c-2.242,0.16-4.666,0.112-6.646,0.983
		c-2.295,1.009-3.316,0.755-3.893-1.612c-0.154-0.64-0.502-1.243-1.369-1.17c-1.213,0.103-1.658-0.556-1.82-1.674
		c-0.239-1.653-1.041-1.545-2.412-0.916c-2.1,0.961-4.217,2.436-6.642,1.92c-1.943-0.412-2.236,0.242-2.391,1.922
		c-0.68,7.416-1.294,14.847-2.362,22.211c-0.364,2.511-0.52,4.178,1.595,6.128C203.805,194.516,205.178,194.885,207.075,191.934z"/>
</g>
</svg>
