<?xml version="1.0" encoding="utf-8"?>
<!-- Generator: Adobe Illustrator 16.0.3, SVG Export Plug-In . SVG Version: 6.00 Build 0)  -->
<!DOCTYPE svg PUBLIC "-//W3C//DTD SVG 1.1//EN" "http://www.w3.org/Graphics/SVG/1.1/DTD/svg11.dtd">
<svg version="1.1" id="Capa_1" xmlns="http://www.w3.org/2000/svg" xmlns:xlink="http://www.w3.org/1999/xlink" x="0px" y="0px"
	 width="512px" height="512px" viewBox="0 0 512 512" enable-background="new 0 0 512 512" xml:space="preserve">
<g>
	<path fill="#7D8BC1" d="M351.602,31.867c0-17.6-14.267-31.867-31.867-31.867c-17.6,0-31.866,14.268-31.866,31.867v29.357l31.866,20
		l31.867-20V31.867z"/>
	<path fill="#0D116F" d="M192.266,0c-17.6,0-31.867,14.268-31.867,31.867v29.357l31.4,20l32.334-20V31.867
		C224.133,14.268,209.865,0,192.266,0L192.266,0z"/>
	<path fill="#060937" d="M160.398,61.224h63.734v45h-63.734V61.224z"/>
	<path fill="#263D97" d="M287.867,61.224h63.733v45h-63.733V61.224z"/>
	<path fill="#5164AC" d="M287.868,415.5V216.333H236L256,415.5H287.868z"/>
	<path fill="#0D116F" d="M224.133,216.333H256V415.5h-31.867V216.333z"/>
	<path fill="#7D8BC1" d="M351.602,148.714v-42.49H236l20,138.091C308.799,244.315,351.602,201.513,351.602,148.714z"/>
	<path fill="#3D418B" d="M160.398,106.224v42.49c0,52.799,42.803,95.602,95.603,95.602V106.224H160.398z"/>
	<path fill="#5164AC" d="M384.402,91.224H256l-10,15l10,15h128.401V91.224z"/>
	<path fill="#090D53" d="M127.598,91.224H256v30H127.598V91.224z"/>
</g>
<g>
	<path fill-rule="evenodd" clip-rule="evenodd" fill="#51BB28" d="M367.958,378.029c-25.425,38.02-51.086,74.675-78.063,110.413
		c-3.223,4.27-4.712,3.018-7.708,0.372c-17.143-15.145-23.945-35.245-24.51-56.92c-1.129-43.524,14.581-81.821,39.698-116.733
		c4.058-5.639,5.453-3.011,7.685,1.208c9.584,18.13,20.204,35.468,36.478,48.675C349.19,371.255,357.773,375.219,367.958,378.029z"
		/>
	<path fill-rule="evenodd" clip-rule="evenodd" fill="#51BB28" d="M403.154,334.943c18.535,12.797,37.297,13.238,57.301,2.737
		c1.811,14.682-1.205,28.093-3.884,41.49c-4.702,23.53-15.615,44.072-30.356,62.813c-4.181,5.316-8.91,6.981-15.783,7.581
		c-24.729,2.157-42.446-9.271-57.731-26.843c-2.849-3.274-3.633-5.433-0.871-9.425C369.411,387.875,386.502,362.121,403.154,334.943
		z"/>
	<path fill-rule="evenodd" clip-rule="evenodd" fill="#51BB28" d="M439.078,249.037c-2.438,11.063-7.014,19.82-11.428,28.527
		c-16.027,31.611-34.462,61.822-53.744,91.538c-3.26,5.018-6.67,5.909-12.07,3.531c-16.541-7.282-27.902-20.272-37.957-34.465
		c-5.707-8.049-9.999-17.095-15.135-25.563c-2.538-4.182-1.834-6.927,1.983-10.077c15.579-12.876,34.294-18.156,53.374-22.526
		c21.703-4.974,44.064-7.938,62.906-21.271C430.832,256.024,434.339,252.865,439.078,249.037z"/>
	<path fill-rule="evenodd" clip-rule="evenodd" fill="#51BB28" d="M416.342,453.469c-25.026,25.658-53.276,43.909-88.93,48.516
		c-10.31,1.331-20.218-1.089-30.043-4.154c-4.785-1.491-3.954-3.535-1.75-6.563c15.692-21.549,31.379-43.104,46.975-64.725
		c2.635-3.652,4.211-2.929,7.101,0.069c9.871,10.253,20.425,19.591,34.864,23.2c7.04,1.761,14.109,1.022,21.17,1.443
		C409.034,451.452,412.602,450.235,416.342,453.469z"/>
	<path fill-rule="evenodd" clip-rule="evenodd" fill="#51BB28" d="M448.452,244.315c6.078,8.186,6.99,16.738,8.623,24.723
		c3.863,18.894,5.276,38.09,5.38,57.404c0.026,4.955-1.811,7.68-5.831,10.192c-14.106,8.822-33.052,8.23-46.106-2.032
		c-2.207-1.733-5.406-3.199-2.872-7.474C423.158,300.969,438.391,274.644,448.452,244.315z"/>
</g>
<g>
	<path fill-rule="evenodd" clip-rule="evenodd" fill="#286F0D" d="M147.663,377.029c25.425,38.02,51.086,74.675,78.063,110.413
		c3.223,4.27,4.712,3.018,7.708,0.372c17.143-15.145,23.946-35.245,24.51-56.92c1.129-43.524-14.582-81.821-39.699-116.733
		c-4.058-5.639-5.453-3.011-7.685,1.208c-9.584,18.13-20.204,35.468-36.478,48.675C166.431,370.255,157.848,374.219,147.663,377.029
		z"/>
	<path fill-rule="evenodd" clip-rule="evenodd" fill="#286F0D" d="M112.468,333.943c-18.535,12.797-37.297,13.238-57.301,2.737
		c-1.811,14.682,1.205,28.093,3.884,41.49c4.702,23.53,15.615,44.072,30.356,62.813c4.181,5.316,8.91,6.981,15.783,7.581
		c24.729,2.157,42.446-9.271,57.731-26.843c2.849-3.274,3.633-5.433,0.871-9.425C146.21,386.875,129.119,361.121,112.468,333.943z"
		/>
	<path fill-rule="evenodd" clip-rule="evenodd" fill="#286F0D" d="M76.543,248.037c2.438,11.063,7.014,19.82,11.428,28.527
		c16.027,31.611,34.462,61.822,53.744,91.538c3.26,5.018,6.67,5.909,12.07,3.531c16.541-7.282,27.902-20.272,37.957-34.465
		c5.707-8.049,9.999-17.095,15.135-25.563c2.538-4.182,1.834-6.927-1.983-10.077c-15.579-12.876-34.294-18.156-53.374-22.526
		c-21.703-4.974-44.064-7.938-62.906-21.271C84.789,255.024,81.282,251.865,76.543,248.037z"/>
	<path fill-rule="evenodd" clip-rule="evenodd" fill="#286F0D" d="M99.279,452.469c25.026,25.658,53.276,43.909,88.93,48.516
		c10.31,1.331,20.218-1.089,30.043-4.154c4.785-1.491,3.954-3.535,1.75-6.563c-15.692-21.549-31.379-43.104-46.975-64.725
		c-2.635-3.652-4.211-2.929-7.101,0.069c-9.871,10.253-20.425,19.591-34.864,23.2c-7.04,1.761-14.109,1.022-21.17,1.443
		C106.587,450.452,103.019,449.235,99.279,452.469z"/>
	<path fill-rule="evenodd" clip-rule="evenodd" fill="#286F0D" d="M67.169,243.315c-6.078,8.186-6.99,16.738-8.623,24.723
		c-3.863,18.894-5.276,38.09-5.38,57.404c-0.026,4.955,1.811,7.68,5.831,10.192c14.106,8.822,33.052,8.23,46.106-2.032
		c2.207-1.733,5.406-3.199,2.872-7.474C92.463,299.969,77.23,273.644,67.169,243.315z"/>
</g>
<g>
	<path fill="#3D8C1E" stroke="#000000" stroke-miterlimit="10" d="M195.026,180.5c-1.48,0-2.22-0.699-2.22-2.1v-38.76
		c2.24-0.44,4.509-0.77,6.81-0.99c2.3-0.219,4.35-0.33,6.15-0.33c2.52,0,4.71,0.24,6.57,0.72c1.86,0.48,3.399,1.26,4.62,2.34
		c1.22,1.08,2.12,2.5,2.7,4.26c0.579,1.76,0.87,3.92,0.87,6.48c0,4.96-1.05,8.55-3.15,10.77c-2.1,2.22-5.21,3.33-9.33,3.33
		c-1,0-1.95-0.05-2.85-0.15c-0.9-0.099-1.63-0.21-2.19-0.33v14.76H195.026z M203.006,158.36c0.48,0.081,0.919,0.141,1.32,0.18
		c0.399,0.04,0.78,0.06,1.14,0.06c0.879,0,1.629-0.09,2.25-0.27c0.62-0.18,1.129-0.52,1.53-1.02c0.399-0.5,0.699-1.17,0.9-2.01
		c0.2-0.84,0.3-1.92,0.3-3.24c0-1.239-0.09-2.259-0.27-3.06c-0.18-0.8-0.45-1.43-0.81-1.89c-0.36-0.459-0.831-0.77-1.41-0.93
		c-0.58-0.16-1.25-0.24-2.01-0.24c-0.36,0-0.861,0.01-1.5,0.03c-0.641,0.021-1.121,0.05-1.44,0.09V158.36z"/>
	<path fill="#3D8C1E" stroke="#000000" stroke-miterlimit="10" d="M241.226,170.3h-8.4c-0.24,1.84-0.46,3.66-0.66,5.46
		c-0.201,1.8-0.34,3.381-0.42,4.74h-8.04c-0.561,0-1.01-0.18-1.35-0.54c-0.34-0.36-0.51-0.96-0.51-1.8c0-0.36,0.02-0.74,0.06-1.14
		c0.04-0.399,0.1-0.78,0.18-1.14c1.08-6.56,2.299-12.859,3.66-18.9c1.359-6.04,3.08-12.06,5.16-18.06h10.86
		c0.8,0,1.359,0.201,1.68,0.6c0.32,0.4,0.56,0.82,0.72,1.26c1.8,5.361,3.439,11.43,4.92,18.21c1.479,6.78,2.799,13.95,3.96,21.51
		h-8.64c-1.281,0-2.021-0.72-2.22-2.16L241.226,170.3z M237.026,146.6c-0.84,3.36-1.51,6.33-2.01,8.91
		c-0.5,2.58-0.97,5.031-1.41,7.35h6.84c-0.44-2.319-0.91-4.77-1.41-7.35C238.535,152.93,237.866,149.96,237.026,146.6z"/>
	<path fill="#3D8C1E" stroke="#000000" stroke-miterlimit="10" d="M260.305,180.5c-1.479,0-2.219-0.699-2.219-2.1v-38.76
		c2.239-0.44,4.489-0.77,6.749-0.99c2.26-0.219,4.49-0.33,6.69-0.33c4.8,0,8.4,1.061,10.8,3.18c2.4,2.121,3.601,5.58,3.601,10.38
		c0,1-0.091,2.031-0.271,3.09c-0.18,1.06-0.479,2.08-0.899,3.06c-0.421,0.981-1.001,1.89-1.74,2.73
		c-0.741,0.84-1.671,1.56-2.79,2.16c0.84,1.08,1.649,2.31,2.43,3.69c0.78,1.38,1.51,2.85,2.19,4.41c0.68,1.56,1.299,3.15,1.859,4.77
		c0.56,1.62,1.021,3.19,1.38,4.71h-8.64c-0.72,0-1.3-0.14-1.74-0.42c-0.44-0.279-0.779-0.8-1.02-1.56
		c-0.72-2.4-1.601-4.779-2.641-7.14c-1.04-2.359-2.02-4.359-2.939-6h-2.82v15.12H260.305z M268.285,157.76h3.181
		c0.6,0,1.17-0.09,1.71-0.27c0.54-0.18,1.02-0.49,1.439-0.93c0.42-0.44,0.75-1.04,0.99-1.8c0.24-0.759,0.36-1.74,0.36-2.94
		c0-1.279-0.101-2.299-0.301-3.06c-0.2-0.759-0.5-1.35-0.899-1.77c-0.4-0.42-0.9-0.7-1.5-0.84c-0.601-0.14-1.281-0.21-2.04-0.21
		c-0.16,0-0.37,0-0.63,0c-0.261,0-0.531,0.01-0.811,0.03c-0.28,0.021-0.561,0.04-0.84,0.06c-0.28,0.021-0.501,0.03-0.66,0.03V157.76
		z"/>
	<path fill="#3D8C1E" stroke="#000000" stroke-miterlimit="10" d="M321.685,143.06c-0.64,1.281-1.359,2.62-2.159,4.02
		c-0.801,1.4-1.661,2.781-2.58,4.14c-0.921,1.36-1.881,2.68-2.88,3.96c-1.001,1.28-2.001,2.44-3,3.48
		c1.359,1.4,2.619,2.96,3.779,4.68c1.16,1.721,2.24,3.521,3.24,5.4c0.999,1.88,1.93,3.82,2.79,5.82c0.859,2,1.65,3.98,2.37,5.94
		h-9.84c-0.761,0-1.33-0.27-1.71-0.81c-0.381-0.54-0.711-1.149-0.99-1.83c-0.32-0.759-0.72-1.719-1.2-2.88
		c-0.479-1.16-1.04-2.379-1.68-3.66c-0.641-1.279-1.36-2.589-2.16-3.93c-0.801-1.34-1.66-2.61-2.58-3.81v16.92h-8.16
		c-1.48,0-2.22-0.699-2.22-2.1v-39.48h8.16c1.479,0,2.22,0.7,2.22,2.1v14.04c1.92-2.36,3.62-4.89,5.1-7.59
		c1.479-2.7,2.859-5.55,4.141-8.55h8.34c0.56,0,0.999,0.16,1.32,0.48c0.319,0.321,0.479,0.741,0.479,1.26
		c0,0.32-0.051,0.65-0.149,0.99C322.215,141.99,322.005,142.46,321.685,143.06z"/>
</g>
</svg>
